<svg xmlns="http://www.w3.org/2000/svg" width="62" height="57" viewBox="0 0 62 57" fill="none">
<path d="M14.0581 39.3627C12.212 39.3627 10.3839 38.9991 8.6783 38.2926C6.97269 37.5861 5.42294 36.5506 4.11752 35.2452C1.48112 32.6088 0 29.033 0 25.3046C0 21.5761 1.48112 18.0004 4.11752 15.364C6.75393 12.7276 10.3297 11.2465 14.0581 11.2465C16.8697 4.63918 23.3365 0 30.9278 0C40.5717 0 48.4724 7.47891 49.2034 16.9541L50.6092 16.8697C53.5919 16.8697 56.4525 18.0546 58.5616 20.1637C60.6708 22.2729 61.8557 25.1335 61.8557 28.1162C61.8557 31.099 60.6708 33.9596 58.5616 36.0687C56.4525 38.1778 53.5919 39.3627 50.6092 39.3627H47.7976C47.0519 39.3627 46.3367 39.0665 45.8094 38.5392C45.2822 38.0119 44.9859 37.2968 44.9859 36.5511C44.9859 35.8054 45.2822 35.0902 45.8094 34.563C46.3367 34.0357 47.0519 33.7395 47.7976 33.7395H50.6092C52.1006 33.7395 53.5309 33.147 54.5854 32.0924C55.64 31.0379 56.2324 29.6076 56.2324 28.1162C56.2324 26.6248 55.64 25.1945 54.5854 24.14C53.5309 23.0854 52.1006 22.493 50.6092 22.493H44.9859V19.6813C44.9859 15.9529 43.5048 12.3772 40.8684 9.74077C38.232 7.10436 34.6563 5.62324 30.9278 5.62324C23.8988 5.62324 18.135 10.7404 17.0384 17.4039C16.1106 17.0665 15.0984 16.8697 14.0581 16.8697C11.821 16.8697 9.6756 17.7584 8.09376 19.3402C6.51191 20.9221 5.62324 23.0675 5.62324 25.3046C5.62324 27.5417 6.51191 29.6871 8.09376 31.2689C9.6756 32.8508 11.821 33.7395 14.0581 33.7395H16.8697C17.6154 33.7395 18.3306 34.0357 18.8578 34.563C19.3851 35.0902 19.6814 35.8054 19.6814 36.5511C19.6814 37.2968 19.3851 38.0119 18.8578 38.5392C18.3306 39.0665 17.6154 39.3627 16.8697 39.3627H14.0581ZM30.9278 25.3046H39.3627L33.7395 36.5511H39.3627L28.8191 56.2324L30.9278 42.1743H23.8988L30.9278 25.3046Z" fill="white"/>
</svg>